# xmcd CD database file
#
# Track frame offsets:
#	150
#	30252
#	73170
#	101845
#	126480
#	154747
#	175957
#	239317
#	259547
#
# Disc length: 4424 seconds
#
# Revision: 0
# Processed by: cddbd v1.5.2PL0 Copyright (c) Steve Scherf et al.
# Submitted via: CDex 1.70beta2
#
DISCID=77114609
DTITLE=Zone Rangers - Twilight
DYEAR=2001
DGENRE=Jazz
TTITLE0=Seconds From Nowhere
TTITLE1=Galactic Express
TTITLE2=Through the Ether
TTITLE3=The Zone at Twilight
TTITLE4=Mofunckulus
TTITLE5=I'm Scared
TTITLE6=Do Da Da Do
TTITLE7=Nice to Michu
TTITLE8=Snowman's Land
EXTD=YEAR: 2001
EXTT0=
EXTT1=
EXTT2=
EXTT3=
EXTT4=
EXTT5=
EXTT6=
EXTT7=
EXTT8=
PLAYORDER=
